/* XPM */
static char * filesel_xpm[] = {
"17 17 15 1",
" 	c None",
".	c #040404",
"+	c #1C1C1C",
"@	c #0F0F0F",
"#	c #141414",
"$	c #242424",
"%	c #FFFFFF",
"&	c #7C7C7C",
"*	c #202020",
"=	c #000000",
"-	c #FEFEFE",
";	c #0B0B0B",
">	c #7B7B7B",
",	c #111111",
"'	c #222222",
"   .+++++@#      ",
"   $%%%%%&%*     ",
"   $%%%%%&%%$    ",
"   $%=%=%&%-%*   ",
"   $%%%%%&===*=  ",
"   $%===%%&&&&;  ",
"   $%%%%%%%>>>,  ",
"   $%=%==%=%=%'  ",
"   $%%%%%%%%%%$  ",
"   $%==%=%%==%$  ",
"   $%%%%%%%%%%$  ",
"   $%==%===%=%$  ",
"   $%%%%%%%%%%$  ",
"   $%==%=%===%$  ",
"   $%%%%%%%%%%$  ",
"   .++++++++++.  ",
"                 "};
