/* XPM */
static char *magick[] = {
/* columns rows colors chars-per-pixel */
"48 48 605 2",
"   c Gray0",
".  c #010101010101",
"X  c #010102020202",
"o  c #020202020202",
"O  c #020202020303",
"+  c Gray1",
"@  c #030303030404",
"#  c #040404040404",
"$  c Gray2",
"%  c #050505050606",
"&  c #060606060606",
"*  c #060606060707",
"=  c #070707070808",
"-  c #070708080909",
";  c #080808080909",
":  c #080808080a0a",
">  c #090909090a0a",
",  c #0a0a0a0a0b0b",
"<  c #0a0a0b0b0c0c",
"1  c #0b0b0b0b0c0c",
"2  c #0b0b0c0c0d0d",
"3  c #0c0c0c0c0e0e",
"4  c #0c0c0d0d0e0e",
"5  c #0d0d0d0d0f0f",
"6  c #0d0d0e0e0f0f",
"7  c #0e0e0e0e1010",
"8  c #0e0e0f0f1111",
"9  c #0f0f0f0f1111",
"0  c #0f0f10101111",
"q  c #101010101212",
"w  c #101011111212",
"e  c #101011111313",
"r  c #111111111313",
"t  c #111112121414",
"y  c #121212121414",
"u  c #121213131515",
"i  c #131313131515",
"p  c #131313131616",
"a  c #131314141616",
"s  c #141414141616",
"d  c #141414141717",
"f  c #151515151717",
"g  c #151515151818",
"h  c #151516161818",
"j  c #151516161919",
"k  c #161616161919",
"l  c #161617171919",
"z  c #171717171919",
"x  c #161617171a1a",
"c  c #171717171a1a",
"v  c #171718181b1b",
"b  c #181818181b1b",
"n  c #181818181c1c",
"m  c #181819191c1c",
"M  c #191919191c1c",
"N  c #191919191d1d",
"B  c #1a1a1a1a1d1d",
"V  c #1a1a1a1a1e1e",
"C  c #1a1a1b1b1e1e",
"Z  c #1b1b1b1b1e1e",
"A  c #1b1b1c1c1f1f",
"S  c #1c1c1d1d2121",
"D  c #1d1d1d1d2121",
"F  c #1d1d1e1e2121",
"G  c #1d1d1e1e2222",
"H  c #1e1e1e1e2121",
"J  c #1e1e1f1f2323",
"K  c #1f1f20202424",
"L  c #202021212525",
"P  c #212121212525",
"I  c #202021212626",
"U  c #212122222626",
"Y  c #222223232727",
"T  c #232323232727",
"R  c #222223232828",
"E  c #222224242828",
"W  c #232324242828",
"Q  c #232324242929",
"!  c #242424242828",
"~  c #252525252a2a",
"^  c #262626262b2b",
"/  c #272727272b2b",
"(  c #262627272c2c",
")  c #272728282c2c",
"_  c #272728282e2e",
"`  c #282829292e2e",
"'  c #292929292e2e",
"]  c #28282a2a2f2f",
"[  c #2a2a2a2a2f2f",
"{  c #2a2a2a2a3030",
"}  c #2a2a2b2b3131",
"|  c #2b2b2b2b3030",
" . c #2b2b2b2b3131",
".. c #2b2b2c2c3232",
"X. c #2b2b2c2c3333",
"o. c #2c2c2d2d3232",
"O. c #2d2d2d2d3232",
"+. c #2d2d2e2e3232",
"@. c #2d2d2e2e3333",
"#. c #2d2d2e2e3535",
"$. c #2e2e2f2f3434",
"%. c #2f2f30303636",
"&. c #2f2f30303737",
"*. c #303031313636",
"=. c #303031313737",
"-. c #313132323939",
";. c #323233333a3a",
":. c #333334343939",
">. c #353535353b3b",
",. c #353536363b3b",
"<. c #343435353c3c",
"1. c #353536363d3d",
"2. c #353536363e3e",
"3. c #363637373d3d",
"4. c #363637373e3e",
"5. c #373738383d3d",
"6. c #373739394141",
"7. c #39393a3a4040",
"8. c #39393a3a4242",
"9. c #3a3a3b3b4242",
"0. c #3a3a3c3c4343",
"q. c #3b3b3c3c4444",
"w. c #3b3b3d3d4444",
"e. c #3c3c3d3d4545",
"r. c #3d3d3e3e4444",
"t. c #3d3d3f3f4747",
"y. c #3d3d3f3f4949",
"u. c #3e3e3f3f4848",
"i. c #3f3f40404747",
"p. c #3f3f40404848",
"a. c #3f3f40404949",
"s. c #404041414747",
"d. c #404041414a4a",
"f. c #414142424949",
"g. c #404042424b4b",
"h. c #414142424b4b",
"j. c #414143434b4b",
"k. c #414142424c4c",
"l. c #424243434d4d",
"z. c #434344444b4b",
"x. c #434344444d4d",
"c. c #434345454e4e",
"v. c #444445454d4d",
"b. c #444445454e4e",
"n. c #444446464f4f",
"m. c #454546464f4f",
"M. c #464646464e4e",
"N. c #454546465050",
"B. c #454547475050",
"V. c #464648485252",
"C. c #48484a4a5454",
"Z. c #49494b4b5454",
"A. c #49494b4b5555",
"S. c #4a4a4b4b5454",
"D. c #4a4a4c4c5555",
"F. c #4b4b4c4c5454",
"G. c #4b4b4c4c5555",
"H. c #4b4b4c4c5656",
"J. c #4c4c4e4e5757",
"K. c #4b4b4d4d5858",
"L. c #4c4c4e4e5858",
"P. c #4d4d4e4e5858",
"I. c #4d4d4f4f5858",
"U. c #4e4e4f4f5858",
"Y. c #4e4e4f4f5959",
"T. c #4e4e50505858",
"R. c #4e4e50505a5a",
"E. c #4f4f51515b5b",
"W. c #4f4f51515c5c",
"Q. c #505051515c5c",
"!. c #515152525d5d",
"~. c #515153535e5e",
"^. c #515153535f5f",
"/. c #555556565e5e",
"(. c #555556566161",
"). c #555557576262",
"_. c #555557576363",
"`. c #565657576161",
"'. c #565658586464",
"]. c #565659596565",
"[. c #58585a5a6464",
"{. c #58585a5a6565",
"}. c #59595a5a6565",
"|. c #58585a5a6767",
" X c #5a5a5c5c6767",
".X c #5c5c5d5d6868",
"XX c #5c5c5e5e6969",
"oX c #5c5c5e5e6a6a",
"OX c #5c5c5e5e6b6b",
"+X c #5c5c5f5f6b6b",
"@X c #5d5d5f5f6a6a",
"#X c #5d5d60606e6e",
"$X c #5f5f60606c6c",
"%X c #5e5e61616f6f",
"&X c #5f5f61616e6e",
"*X c #5f5f62627070",
"=X c #606060606060",
"-X c #606064646060",
";X c #606061616c6c",
":X c #606062626d6d",
">X c #606062626f6f",
",X c #616163636f6f",
"<X c #626264646f6f",
"1X c #646464646e6e",
"2X c #626264647070",
"3X c #626264647171",
"4X c #636365657171",
"5X c #626264647272",
"6X c #626265657373",
"7X c #626266667474",
"8X c #656566667070",
"9X c #646466667272",
"0X c #656567677373",
"qX c #656567677575",
"wX c #656568687575",
"eX c #666668687575",
"rX c #666669697777",
"tX c #66666a6a7979",
"yX c #686869697575",
"uX c #69696b6b7777",
"iX c #68686b6b7979",
"pX c #6a6a6c6c7878",
"aX c #6c6c6d6d7878",
"sX c #6d6d6e6e7a7a",
"dX c #6d6d6f6f7c7c",
"fX c #6d6d6f6f7e7e",
"gX c #6e6e70707d7d",
"hX c #6f6f70707c7c",
"jX c #6e6e70707e7e",
"kX c #6f6f71717e7e",
"lX c #6f6f72727f7f",
"zX c #707071717e7e",
"xX c #707072727e7e",
"cX c #6e6e71718080",
"vX c #6e6e71718383",
"bX c #707072728080",
"nX c #707073738282",
"mX c #707074748585",
"MX c #727274748484",
"NX c #727275758585",
"BX c #727275758686",
"VX c #757576768282",
"CX c #757577778484",
"ZX c #757578788787",
"AX c #777779798484",
"SX c #767678788787",
"DX c #757579798989",
"FX c #767679798888",
"GX c #767679798989",
"HX c #777779798888",
"JX c #767679798a8a",
"KX c #77777a7a8a8a",
"LX c #79797a7a8787",
"PX c #7a7a7d7d8b8b",
"IX c #7a7a7d7d8c8c",
"UX c #7b7b7d7d8c8c",
"YX c #7b7b7d7d8d8d",
"TX c #7c7c7d7d8c8c",
"RX c #7c7c7e7e8d8d",
"EX c #7c7c7f7f8e8e",
"WX c #7e7e81819393",
"QX c #7f7f82829191",
"!X c #7f7f82829393",
"~X c #7e7e82829494",
"^X c #7f7f83839494",
"/X c #818182829090",
"(X c #828285859494",
")X c #838385859494",
"_X c #838386869797",
"`X c #818185859a9a",
"'X c #838387879a9a",
"]X c #838387879b9b",
"[X c #848487879898",
"{X c #858587879a9a",
"}X c #868688889696",
"|X c #878789899797",
" o c #858588889999",
".o c #868688889898",
"Xo c #868689899999",
"oo c #878789899999",
"Oo c #87878a8a9a9a",
"+o c #858589899c9c",
"@o c #86868a8a9d9d",
"#o c #87878a8a9c9c",
"$o c #88888b8b9b9b",
"%o c #8a8a8b8b9b9b",
"&o c #88888b8b9e9e",
"*o c #89898c8c9d9d",
"=o c #8c8c8f8f9d9d",
"-o c #8c8c8e8e9e9e",
";o c #8d8d8f8f9e9e",
":o c #8e8e8f8f9d9d",
">o c #88888b8ba0a0",
",o c #88888d8da1a1",
"<o c #8b8b8f8fa2a2",
"1o c #8d8d9090a0a0",
"2o c #8c8c9090a2a2",
"3o c #8d8d9090a2a2",
"4o c #8d8d9191a3a3",
"5o c #8e8e9191a3a3",
"6o c #8e8e9191a4a4",
"7o c #8e8e9191a5a5",
"8o c #8e8e9292a5a5",
"9o c #8e8e9292a6a6",
"0o c #92929292a1a1",
"qo c #91919393a4a4",
"wo c #91919393a5a5",
"eo c #93939494a3a3",
"ro c #91919494a6a6",
"to c #92929494a4a4",
"yo c #91919494a8a8",
"uo c #94949696a8a8",
"io c #94949696a9a9",
"po c #94949797a9a9",
"ao c #94949797abab",
"so c #95959797aaaa",
"do c #96969797a8a8",
"fo c #97979898a8a8",
"go c #96969999abab",
"ho c #94949898acac",
"jo c #94949898adad",
"ko c #95959898acac",
"lo c #95959898adad",
"zo c #96969a9aaeae",
"xo c #96969a9aafaf",
"co c #99999a9aaaaa",
"vo c #98989b9badad",
"bo c #99999b9baeae",
"no c #99999c9cafaf",
"mo c #9a9a9d9dafaf",
"Mo c #9b9b9d9daeae",
"No c #9e9e9f9fafaf",
"Bo c #95959a9ab0b0",
"Vo c #97979c9cb3b3",
"Co c #97979c9cb4b4",
"Zo c #98989c9cb0b0",
"Ao c #99999d9db2b2",
"So c #99999d9db3b3",
"Do c #9a9a9d9db0b0",
"Fo c #9a9a9e9eb0b0",
"Go c #9b9b9e9eb3b3",
"Ho c #9b9b9e9eb4b4",
"Jo c #9b9ba0a0b6b6",
"Ko c #9f9fa1a1b1b1",
"Lo c #9e9ea0a0b2b2",
"Po c #9c9ca0a0b7b7",
"Io c #9e9ea2a2b7b7",
"Uo c #9d9da2a2b8b8",
"Yo c #9e9ea2a2b8b8",
"To c #9f9fa2a2b8b8",
"Ro c #9e9ea3a3baba",
"Eo c #a0a0a2a2b1b1",
"Wo c #a0a0a3a3b8b8",
"Qo c #a0a0a3a3b9b9",
"!o c #a0a0a4a4b9b9",
"~o c #a1a1a5a5bbbb",
"^o c #a2a2a5a5b8b8",
"/o c #a0a0a5a5bdbd",
"(o c #a2a2a6a6bcbc",
")o c #a3a3a6a6bcbc",
"_o c #a3a3a7a7bcbc",
"`o c #a3a3a7a7bebe",
"'o c #a4a4a6a6b8b8",
"]o c #a4a4a6a6b9b9",
"[o c #a5a5a8a8baba",
"{o c #a6a6a9a9bbbb",
"}o c #a6a6a9a9bdbd",
"|o c #a7a7aaaabebe",
" O c #a8a8aaaabebe",
".O c #a8a8ababbfbf",
"XO c #acacaeaebfbf",
"oO c #a5a5a9a9c2c2",
"OO c #a5a5aaaac0c0",
"+O c #a6a6aaaac1c1",
"@O c #a7a7ababc0c0",
"#O c #a8a8acacc0c0",
"$O c #aaaaadadc2c2",
"%O c #ababadadc2c2",
"&O c #a8a8adadc4c4",
"*O c #a9a9adadc6c6",
"=O c #a9a9afafc7c7",
"-O c #aaaaafafc7c7",
";O c #ababaeaec6c6",
":O c #ababafafc6c6",
">O c #acacaeaec0c0",
",O c #acacafafc5c5",
"<O c #adadafafc5c5",
"1O c #acacafafc6c6",
"2O c #a8a8aeaec8c8",
"3O c #aaaaafafc8c8",
"4O c #ababafafc8c8",
"5O c #adadb0b0c3c3",
"6O c #afafb0b0c2c2",
"7O c #adadb0b0c4c4",
"8O c #acacb0b0c6c6",
"9O c #adadb0b0c6c6",
"0O c #afafb1b1c5c5",
"qO c #aeaeb1b1c6c6",
"wO c #aeaeb1b1c7c7",
"eO c #afafb2b2c7c7",
"rO c #ababb0b0cbcb",
"tO c #ababb2b2cccc",
"yO c #acacb0b0c9c9",
"uO c #acacb1b1c8c8",
"iO c #acacb1b1c9c9",
"pO c #adadb1b1c9c9",
"aO c #afafb2b2caca",
"sO c #afafb3b3cccc",
"dO c #afafb5b5d1d1",
"fO c #adadb5b5d6d6",
"gO c #aeaeb5b5d6d6",
"hO c #aeaeb6b6d6d6",
"jO c #afafb6b6d6d6",
"kO c #afafb7b7d6d6",
"lO c #afafb7b7d7d7",
"zO c #b1b1b2b2c5c5",
"xO c #b0b0b3b3c7c7",
"cO c #b1b1b4b4c7c7",
"vO c #b4b4b5b5c7c7",
"bO c #b1b1b3b3c9c9",
"nO c #b3b3b5b5c9c9",
"mO c #b2b2b5b5caca",
"MO c #b1b1b4b4cccc",
"NO c #b0b0b5b5cece",
"BO c #b1b1b6b6cece",
"VO c #b3b3b6b6cdcd",
"CO c #b2b2b6b6cece",
"ZO c #b3b3b8b8cfcf",
"AO c #b4b4b8b8cece",
"SO c #b4b4b9b9cfcf",
"DO c #b5b5b9b9cfcf",
"FO c #b6b6babacfcf",
"GO c #b7b7babacfcf",
"HO c #b8b8bbbbcfcf",
"JO c #b9b9bcbccfcf",
"KO c #b2b2b7b7d1d1",
"LO c #b3b3b7b7d0d0",
"PO c #b2b2b7b7d2d2",
"IO c #b0b0b7b7d7d7",
"UO c #b3b3b8b8d1d1",
"YO c #b2b2b8b8d2d2",
"TO c #b3b3b8b8d2d2",
"RO c #b0b0b8b8d7d7",
"EO c #b1b1b8b8d7d7",
"WO c #b1b1b9b9d7d7",
"QO c #b2b2b9b9d7d7",
"!O c #b4b4b9b9d2d2",
"~O c #b5b5b9b9d2d2",
"^O c #b5b5b9b9d3d3",
"/O c #b7b7babad0d0",
"(O c #b6b6babad2d2",
")O c #b4b4babad6d6",
"_O c #b4b4babad7d7",
"`O c #b7b7bbbbd4d4",
"'O c #b6b6bbbbd6d6",
"]O c #b6b6bbbbd7d7",
"[O c #b7b7bcbcd4d4",
"{O c #b7b7bcbcd6d6",
"}O c #b2b2b9b9d8d8",
"|O c #b3b3b9b9d8d8",
" + c #b3b3babad8d8",
".+ c #b4b4babad8d8",
"X+ c #b4b4bbbbd8d8",
"o+ c #b4b4bbbbd9d9",
"O+ c #b5b5bbbbd9d9",
"++ c #b5b5bcbcd8d8",
"@+ c #b5b5bcbcd9d9",
"#+ c #b6b6bcbcd9d9",
"$+ c #b6b6bdbdd9d9",
"%+ c #b7b7bdbdd8d8",
"&+ c #b7b7bdbdd9d9",
"*+ c #b7b7bdbddada",
"=+ c #b8b8bcbcd3d3",
"-+ c #b8b8bdbdd3d3",
";+ c #b9b9bcbcd2d2",
":+ c #bababcbcd1d1",
">+ c #bababdbdd0d0",
",+ c #bbbbbebed3d3",
"<+ c #b8b8bcbcd4d4",
"1+ c #b9b9bdbdd5d5",
"2+ c #b8b8bdbdd6d6",
"3+ c #b9b9bdbdd7d7",
"4+ c #b9b9bebed6d6",
"5+ c #bbbbbebed4d4",
"6+ c #bdbdbfbfd1d1",
"7+ c #bdbdbfbfd2d2",
"8+ c #bcbcbfbfd4d4",
"9+ c #bcbcbfbfd5d5",
"0+ c #bdbdbfbfd5d5",
"q+ c #b8b8bdbdd8d8",
"w+ c #b8b8bdbddada",
"e+ c #b8b8bebed8d8",
"r+ c #b8b8bebedada",
"t+ c #b9b9bebedada",
"y+ c #b9b9bfbfdada",
"u+ c #b9b9bfbfdbdb",
"i+ c #bababebed9d9",
"p+ c #bababfbfd9d9",
"a+ c #bbbbbfbfd8d8",
"s+ c #bbbbbfbfd9d9",
"d+ c #bababfbfdada",
"f+ c #bababfbfdbdb",
"g+ c #bbbbbfbfdada",
"h+ c #bdbdc0c0d6d6",
"j+ c #bdbdc0c0d7d7",
"k+ c #bebec1c1d5d5",
"l+ c #bebec1c1d6d6",
"z+ c #bfbfc2c2d6d6",
"x+ c #bbbbc0c0d9d9",
"c+ c #babac0c0dbdb",
"v+ c #bbbbc0c0dada",
"b+ c #bbbbc0c0dbdb",
"n+ c #bcbcc0c0d9d9",
"m+ c #bcbcc1c1dbdb",
"M+ c #bdbdc1c1dada",
"N+ c #bdbdc2c2dbdb",
"B+ c #bfbfc2c2d8d8",
"V+ c #bfbfc2c2d9d9",
"C+ c #bebec2c2dada",
"Z+ c #bebec2c2dbdb",
"A+ c #bfbfc3c3dbdb",
"S+ c #bcbcc1c1dcdc",
"D+ c #bdbdc1c1dcdc",
"F+ c #bdbdc2c2dcdc",
"G+ c #bebec2c2dcdc",
"H+ c #bebec3c3dcdc",
"J+ c #bebec3c3dddd",
"K+ c #bfbfc3c3dddd",
"L+ c #bfbfc4c4dddd",
"P+ c #c0c0c1c1d6d6",
"I+ c #c2c2c4c4d7d7",
"U+ c #c0c0c3c3d9d9",
"Y+ c #c1c1c3c3d8d8",
"T+ c #c1c1c3c3d9d9",
"R+ c #c0c0c3c3dada",
"E+ c #c0c0c3c3dbdb",
"W+ c #c0c0c4c4dbdb",
"Q+ c #c1c1c4c4dada",
"!+ c #c3c3c5c5dada",
"~+ c #c3c3c5c5dbdb",
"^+ c #c0c0c4c4dcdc",
"/+ c #c0c0c4c4dddd",
"(+ c #c0c0c5c5dddd",
")+ c #c1c1c5c5dddd",
"_+ c #c1c1c5c5dede",
"`+ c #c2c2c5c5dcdc",
"'+ c #c2c2c5c5dddd",
"]+ c #c2c2c5c5dede",
"[+ c #c2c2c6c6dcdc",
"{+ c #c3c3c6c6dcdc",
"}+ c #c3c3c6c6dddd",
"|+ c #c2c2c6c6dede",
" @ c #c3c3c6c6dede",
".@ c #c3c3c7c7dede",
"X@ c #c4c4c7c7dcdc",
"o@ c #c4c4c7c7dddd",
"O@ c #c5c5c7c7dcdc",
"+@ c #c4c4c7c7dede",
"@@ c #c4c4c7c7dfdf",
"#@ c #c6c6c7c7dcdc",
"$@ c #c4c4c8c8dfdf",
"%@ c #c5c5c8c8dede",
"&@ c #c5c5c8c8dfdf",
"*@ c #c5c5c9c9dfdf",
"=@ c #c6c6c9c9dddd",
"-@ c #c6c6c9c9dfdf",
";@ c #c8c8cacadfdf",
":@ c #c8c8cbcbdfdf",
">@ c #c9c9cbcbdede",
",@ c #c9c9cbcbdfdf",
"<@ c #c6c6c9c9e0e0",
"1@ c #c7c7c9c9e0e0",
"2@ c #c7c7cacae0e0",
"3@ c #c8c8cacae0e0",
"4@ c #c8c8cbcbe0e0",
"5@ c #c9c9cbcbe0e0",
"6@ c #c9c9cbcbe1e1",
"7@ c #c9c9cccce1e1",
"8@ c #cacacccce0e0",
"9@ c #cacacccce1e1",
"0@ c #cacacdcde1e1",
"q@ c #cbcbcdcde1e1",
"w@ c #cbcbcdcde2e2",
"e@ c #cccccecee2e2",
"r@ c #cdcdcecee2e2",
"t@ c #cdcdcfcfe2e2",
"y@ c #cececfcfe2e2",
"u@ c #cececfcfe3e3",
"i@ c #ceced0d0e3e3",
"p@ c #cfcfd0d0e3e3",
"a@ c #cfcfd1d1e3e3",
"s@ c #d0d0d1d1e3e3",
"d@ c #d0d0d1d1e4e4",
"f@ c #d1d1d1d1e4e4",
"g@ c #d1d1d2d2e4e4",
"h@ c #d2d2d2d2e4e4",
"j@ c #d2d2d3d3e4e4",
"k@ c #d3d3d3d3e4e4",
"l@ c #d3d3d3d3e5e5",
"z@ c #d3d3d4d4e5e5",
"x@ c #d4d4d4d4e5e5",
"c@ c #d4d4d5d5e5e5",
"v@ c #d5d5d5d5e5e5",
"b@ c #d6d6d6d6e6e6",
"n@ c #eeeeeeeeeeee",
/* pixels */
"=X=X=X=X=X=X=X=X=X=X=X=X=X=X=X=X=X=X=X=X=X=X=X=X=X=X=X=X=X=X=X=X=X=X=X=X=X=X=X=X=X=X=X=X=X=X=Xn@",
"-Xb@b@b@b@b@v@v@x@x@z@k@j@h@g@g@s@s@p@p@i@y@t@r@e@e@w@q@9@9@7@6@4@4@2@2@<@-@*@&@$@@@.@.@|+|+]+n@",
"=Xb@b@b@b@v@v@x@x@z@k@j@h@g@g@s@s@p@p@i@y@t@r@e@e@w@q@9@9@7@6@4@4@2@2@<@-@*@&@$@@@.@.@|+|+]+_+n@",
"-Xb@b@b@v@v@x@x@z@k@j@h@g@g@s@s@p@p@i@y@t@r@e@e@w@q@9@9@7@6@4@4@2@2@<@-@*@&@$@@@.@.@|+|+_+_+)+n@",
"=Xb@v@v@v@x@x@z@k@j@h@g@g@s@s@p@p@i@y@t@r@e@e@q@q@9@9@7@6@4@3@2@2@<@-@*@&@$@@@.@.@|+|+_+)+)+/+n@",
"=Xv@v@v@x@x@z@k@j@h@g@g@s@s@p@p@i@y@t@r@e@e@q@q@9@9@7@6@4@3@2@2@<@-@*@&@[+V+W+.@A+|+_+)+(+/+/+n@",
"=Xv@c@x@x@z@k@j@h@g@g@s@s@p@p@i@y@t@r@e@e@q@q@9@9@7@6@4@3@2@2@<@-@*@&@FOsoPXdXEXro(O^+(+/+/+K+n@",
"=Xc@x@x@l@k@j@h@g@g@s@s@p@p@i@y@t@r@e@e@q@q@9@9@7@6@4@3@2@2@<@-@*@&@$@boJ.K p y =.[XSO/+L+K+K+n@",
"=Xx@z@l@k@j@h@g@g@s@s@p@p@i@y@t@r@e@e@q@q@9@9@7@6@4@3@2@2@<@-@&@U+9+j+(X) O . . $ o. o4+K+K+H+n@",
"=Xz@l@k@j@h@g@g@s@s@p@p@i@y@t@r@e@e@q@q@9@9@7@6@4@3@2@2@<@-@&@;+voqoFo<XZ %       . n.ToJ+H+G+n@",
"=Xl@j@j@h@g@g@s@s@p@p@i@y@t@r@e@e@q@q@9@9@7@6@4@3@2@2@<@-@&@U+goH.v.@Xw.o.%.$ o   + R GX[OG+F+n@",
"=Xj@j@h@g@f@s@s@p@p@i@y@t@r@e@e@q@q@9@9@7@6@4@3@2@2@<@-@&@&@|om.+ 1 F ` 3XXoL.k .   t oXBOF+D+n@",
"=Xj@g@g@f@s@s@p@p@i@y@t@r@e@e@q@q@9@9@7@6@4@3@2@2@<@-@+@{+|oU.      o N lX-+WoB.e   - d.pOD+S+n@",
"=Xg@g@f@s@s@p@p@i@y@t@r@e@e@q@q@9@9@7@6@4@3@2@2@&@8+7O^omowOkX0     . 1 B.!ox+#o&.. O -.-OS+m+n@",
"=Xg@d@s@s@p@p@i@y@t@r@e@e@q@q@9@9@7@5@4@3@2@2@<@T+-o;Xp.9.QXDoSX; O     D >XQoho0.* # K.yOv+b+n@",
"=Xd@s@s@p@p@u@y@t@r@e@e@q@q@9@9@7@5@4@3@2@2@<@%@.Of.l o * ( IXVOR.m +   * U p...% O , 6XiOd+b+n@",
"=Xs@a@p@p@u@y@t@r@e@e@q@q@9@9@7@5@4@3@2@2@o@]omORXC .     # e.#ono).N #   % ; # < L 8.~XNOb+f+n@",
"-Xa@p@p@u@y@t@r@e@8@8@>@5@9@7@;@4@3@2@2@<@5OgX<XU.T 0 $     , {._oroZ.p X     q |.+oUoNO%+f+f+n@",
"=Xp@i@u@y@t@r@q@6+XOEocofo'ozOk+3@2@2@<@nO0XC > ^ I.P.K O   . ` _XZO!X1.3     X l.Rod+y+f+f+y+n@",
"-Xi@u@y@t@r@>@6OAX/.s.:.+.O.T.MoX@2@<@:+)X*.$ @ ~ bXpo4XY     o e.Qo:OcX( %   O E JX'Of+u+y+t+n@",
"=Xu@t@t@r@e@Nor.9 1 $ @ # # W CXHO<@-@eO$X>     r Y.po@OlXr   . x wX`O(o_.m     e ]./ou+y+t+r+n@",
"-Xt@t@r@I+0o7.*             * i.xO-@&@h+ooq     $ K ,X9O1O!.    , E.pO2+joa.6   # } ,oy+r+r+w+n@",
"=Xt@e@8@vO1Xi     . @ o = @ ; H }X+@&@.@bO[.      # o.ZXa+aoL   < NXF+S+p+DX,       tX%+r+w+*+n@",
"-Xe@e@#@:o9 o ; s ' 5.F.`.zXpX;o1o}+W+}ogo%O .      , q.ho;O+X* x xop+S+b+4O6.%   X ( Vo_O*+&+n@",
"=Xe@w@,@aX& | z.8X|Xdo{o0O,+Q+`+&@$@/OuX X#O*or .     h W.Io{Xu.qXsOS+b+b+c+>oJ     S mXrO&+#+n@",
"-Xw@q@7+M.f hX>Oz+Y+-@%@-@-@&@&@$@j+$o$.V 5o<+2Xp     + R MXzoiX@oUOb+b+c+f+YOtXN ; y.`XtO#+#+n@",
"=Xq@:@Ko,.[ eo!+3@2@1@-@-@&@&@$@@@qO(.8 3 2X,O8Oh.=   # ;.&o!OsO~Oi+b+c+f+u+e+Vo*XvXCo2O)O#+O+n@",
"-X0@O@/XT / =o~+2@1@-@-@&@&@$@@@.@<OXXd = h.koa+8o4.3 #.NXuOS+v+b+b+c+f+u+t+&+POdO#+++#+@+O+O+n@",
"=X9@=@LXB ) %oX@1@-@-@&@&@$@@@.@ @AOHXW + Q YXa+M+!Xh.nX&Op+m+b+b+c+f+u+t+r+r+#+*+$+#+@+O+O+X+n@",
"=X7@P+VXz k yX0+-@-@&@&@$@@@.@ @|+A+3o{ O 9 ~.aOH+COAo(oq+m+b+b+c+f+u+t+r+r+*+*+$+#+@+O+o+X+.+n@",
"=X6@JOxXy y .XcO-@&@&@@@@@.@ @|+^+1OeXN + : e.ZoG+F+F+S+m+b+b+c+f+u+t+r+r+*+*+#+#+@+O+o+X+.+ +n@",
"=X4@>+sX$ o P [o&@&@@@@@.@ @|+|+(OUXG t ] . t yox+F+S+m+b+b+c+f+u+t+r+r+*+*+#+#+@+O+o+X+ + +|On@",
"=X4@l+zX> . w 0XB+@@@@.@ @|+|+1+5o8.: g.>Xg 3 rX3+S+m+b+b+c+f+u+t+r+r+*+*+#+#+@+O+o+X+ + +|O}On@",
"=X2@2@TX4   . >.woE+.@ @|+|+_+$Ob.* 2 KX2o<.; &X*Os+b+b+c+f+u+t+r+r+*+*+#+#+@+O+o+X+ + +}O}OQOn@",
"=X2@<@to! @   d G.vobOC+VOn+OoQ + . ~ 4oMO5Xn N.~ob+b+c+f+u+t+r+r+*+*+#+#+@+O+o+.+ + +}O}OQOEOn@",
"=X<@-@Lo3.*     0 p.9XjX,XD.B     * j.Go3+^X_ c.Soi+c+f+y+t+r+r+*+*+#+#+@+O+o+.+ + +}O}OWOEOEOn@",
"=X-@*@GO}.5       % u c d 1 o     M fXBOLOBXR k.Soy+f+y+t+r+r+*+*+#+#+@+O+o+.+ + +}O}OWOEOEOIOn@",
"=X*@&@R+.o@.          . .       + =.<oLO'X2.6 V.=Ot+y+t+r+r+*+*+#+#+@+O+o+.+ + +}O}OWOEOROIOIOn@",
"=X&@$@`+ O:Xb                   a OX+OPoC.7 j 7XTOy+t+r+r+*+*+#+#+@+O+o+.+ + +}O}OEOEOROIOIOkOn@",
"=X$@@@+@5+uoS.O O             > A.`o{O9oX.% I ]Xy+t+r+r+*+*+#+#+@+O+o+.+ + +}O}OEOEOROIOlOkOjOn@",
"=X@@.@.@'+=+ioZ.A > * # % X v '.Yop+s+Jo` v %X3Ot+r+r+*+*+#+#+@+O+o+.+ + +}O}OEOEOROIOlOkOjOhOn@",
"-X.@.@ @|+]+Z+DOFXx.<.2.t.Q.WXHob+m+b+q+#X^.Bo]Or+r+*+*+#+#+@+O+o+.+ + +}O}OEOEOROIOlOkOhOhOgOn@",
"=X.@|+|+]+_+)+/+1+)o7o6oloOO^Og+m+b+b+c+oORoKO&+r+*+*+#+#+@+O+o+.+ + +}O}OEOEOROIOlOjOhOhOgOfOn@",
"=X|+|+]+_+)+/+/+K+K+N+s+x+D+S+m+b+b+c+f+y+t+r+r+*+*+#+#+@+O+o+.+ + +}O}OEOEOROIOlOjOhOhOfOfOfOn@",
"=X|+_+_+)+/+/+K+K+H+G+F+D+S+m+b+b+c+f+y+t+r+r+*+*+#+#+@+O+o+.+ + +}O}OEOEOROIOlOjOhOhOfOfOfOfOn@",
"=X_+)+)+/+/+K+K+H+G+F+D+S+m+b+b+f+f+y+t+r+r+*+&+#+#+@+O+o+.+ + +}O}OEOEOROIOlOjOhOhOfOfOfOfOfOn@",
"=X)+(+/+/+K+K+H+G+F+D+S+m+b+b+f+f+y+t+r+r+*+&+#+#+@+O+o+.+ + +}O}OEOEOROIOlOjOhOhOfOfOfOfOfOfOn@",
"n@n@n@n@n@n@n@n@n@n@n@n@n@n@n@n@n@n@n@n@n@n@n@n@n@n@n@n@n@n@n@n@n@n@n@n@n@n@n@n@n@n@n@n@n@n@n@n@"
};
