/* XPM */
static char * tb_blank[] = {
/* width height num_colors chars_per_pixel */
"17 17 2 1",
/* colors */
" 	c none",
".	c black",
/* pixels */
".................",
".               .",
".               .",
".               .",
".               .",
".               .",
".               .",
".               .",
".               .",
".               .",
".               .",
".               .",
".               .",
".               .",
".               .",
".................",
"                 "};
