/* XPM */
static char *tb_centjust[] = {
/* width height num_colors chars_per_pixel */
"    17    17      2            1",
/* colors */
"  c None",
". c #000000",
/* pixels */
"                 ",
"                 ",
"   ............  ",
"                 ",
"      ......     ",
"                 ",
"   ............  ",
"                 ",
"     ........    ",
"                 ",
"    ..........   ",
"                 ",
"      ......     ",
"                 ",
"   ............  ",
"                 ",
"                 "
};
