/* XPM */
static char *tb_emphasis[] = {
/* width height num_colors chars_per_pixel */
"    17    17      2            1",
/* colors */
"  c None",
"X c #000000",
/* pixels */
"                 ",
"                 ",
"   XXXXXXXX    XX",
"    XX   XX    XX",
"    XX    X    XX",
"    XX    X   XX ",
"   XX   X     XX ",
"   XX   X     XX ",
"   XXXXX      X  ",
"   XX  X     XX  ",
"  XX   X     X   ",
"  XX      X  X   ",
"  XX      X      ",
"  XX    XX  XX   ",
" XXXXXXXXX  XX   ",
"                 ",
"                 "
};
