/* XPM */
static char * tb_framewiz_xpm[] = {
"17 17 30 1",
" 	c None",
".	c #3F3F3F",
"+	c #898989",
"@	c #757171",
"#	c #000BF4",
"$	c #C1BA51",
"%	c #E2E2E2",
"&	c #000000",
"*	c #595959",
"=	c #000DDB",
"-	c #BC6969",
";	c #8FA8A6",
">	c #74918D",
",	c #000FC3",
"'	c #000DE3",
")	c #000ECB",
"!	c #000CEB",
"~	c #000ED3",
"{	c #000FBB",
"]	c #0010AB",
"^	c #FFFFFF",
"/	c #0011A3",
"(	c #191C94",
"_	c #0010B3",
":	c #191D8D",
"<	c #001473",
"[	c #00128B",
"}	c #00146B",
"|	c #001383",
"1	c #00137B",
"   ..............",
"   .+@+@++@++@++.",
"   .$%$$$$$$$$$$.",
"   .$$$%$%$$%$$$.",
"   &************.",
"   =----*;>;;;;;.",
"  ,''---*;;;>>;>.",
"  )!=---*;;>;;;;.",
"  ~#~---*;;;;;;;.",
" {=!)]--*;>;>>;;.",
" ,'^,/--*;;;;;;;.",
" )!={(--*>;;>;;>.",
"_~#~_:<-*>;;;;;;.",
"{^!)][}-*;;;;;;;.",
",'',^|}-*>>;>;;;.",
"=!)][^}}.........",
"'',/|}}}         "};
