/* XPM */
static char * tb_form_xpm[] = {
"17 17 9 1",
" 	c None",
".	c #E2E2E2",
"+	c #474747",
"@	c #000000",
"#	c #8DB2AD",
"$	c #8C8C8C",
"%	c #FFFFFF",
"&	c #50A051",
"*	c #A05050",
"................+",
"...@.@.@........+",
".@.@..@@..@.....+",
"##@@##@@@#@##@##@",
"$$$$$$$$$$$$$$$$$",
".@..@.@@.@@.....+",
".@@.@..@..@.....+",
"#@##@@#@#@###@##@",
"$$$$$$$$$$$$$$$$$",
"@..@......@.....+",
"@.@...@@@..@....+",
"#@#@@#@@##@##@##@",
"$$$$$$$$$$$$$$$$$",
".....$$....$$...+",
"....$&&$..$**$..+",
".....$&$..$**...+",
" ++++++++++++++++"};
