/* XPM */
static char * tb_formoption_xpm[] = {
"17 17 5 1",
" 	c None",
".	c #000000",
"+	c #E3E3E3",
"@	c #CDCECD",
"#	c #FFFFFF",
"                 ",
"                 ",
"                 ",
"                 ",
"                 ",
".................",
".+++++++++++.@@@.",
".+##########.@.@.",
".+#...#..#.#.@.@.",
".+##########.@.@.",
".+++++++++++.@@@.",
".................",
"                 ",
"                 ",
"                 ",
"                 ",
"                 "};
