/* XPM */
static char * tb_frame_xpm[] = {
"17 17 12 1",
" 	c None",
".	c #3F3F3F",
"+	c #898989",
"@	c #757171",
"#	c #000BF4",
"$	c #C1BA51",
"%	c #B2B2B2",
"&	c #595959",
"*	c #FFFFFF",
"=	c #995555",
"-	c #8FA8A6",
";	c #74918D",
" ................",
" .+@@@+@+@+@+@+#.",
" .+@@+@++@++@+++.",
" .$%$$%$$$$$$$%$.",
" .$$%$%$%$$%$$%$.",
" .&&&***********.",
" .===*---;-----*.",
" .===*-;---;;--*.",
" .===*----;----*.",
" .===*---------*.",
" .===*--;--;---*.",
" .===*;-;-----;*.",
" .===*---------*.",
" .===*--;;-;--;*.",
" .===*---------*.",
" .===***********.",
" ................"};
