/* XPM */
static char * tb_fontm1[] = {
"17 17 2 1",
" 	c None",
".	c #000000",
"                 ",
"                 ",
"              .. ",
"             ... ",
"              .. ",
"              .. ",
"              .. ",
"              .. ",
" ........     .. ",
"              .. ",
"              .. ",
"              .. ",
"              .. ",
"              .. ",
"                 ",
"                 ",
"                 "};
