/* XPM */
static char * tb_frameset_xpm[] = {
"17 17 11 1",
" 	c None",
".	c #3F3F3F",
"+	c #898989",
"@	c #757171",
"#	c #000BF4",
"$	c #FFFFFF",
"%	c #B2B2B2",
"&	c #C1BA51",
"*	c #995555",
"=	c #6D7F7E",
"-	c #74918D",
".................",
".+@+@@+@+@+@+@+#.",
".+@+@+@++@++@+++.",
".$$$$$$$$$$$$$$$.",
".$%&%&%%%&%%&%&$.",
".$&&%&%&%&&%&&%$.",
".$$$$$$$$$$$$$$$.",
".$***$=========$.",
".$***$=-===--==$.",
".$***$====-====$.",
".$***$=========$.",
".$***$=-=-=--==$.",
".$***$-========$.",
".$***$==-==-===$.",
".$***$-=-=====-$.",
".$$$$$$$$$$$$$$$.",
"................."};
