/* XPM */
static char * tb_framebase_xpm[] = {
"17 17 4 1",
" 	c None",
".	c #C40000",
"+	c #000000",
"@	c #CC0000",
".                ",
"..   ...  ...  . ",
". . .  . .    . .",
". . .  .  ..  ...",
". . . ..    . .  ",
"..   . . ...   . ",
"       +++       ",
"     +++@+++     ",
"   ++@@+++@@++   ",
"   +@@++@++@@+   ",
"  ++@++@@@++@++  ",
"  +@@+@@+@@+@@+  ",
"  ++@++@@@++@++  ",
"   +@@++@++@@+   ",
"   ++@@+++@@++   ",
"     +++@+++     ",
"       +++       "};
