/* XPM */
static char * tb_frameset2_xpm[] = {
"17 17 2 1",
" 	c None",
".	c #C40000",
"                 ",
"                 ",
"                 ",
"                 ",
"                 ",
"  .         . .  ",
" .  ... .. ... . ",
".  .   .  . .   .",
" .  .. .... .  . ",
"  .   ..    . .  ",
"   ...  ..   .   ",
"                 ",
"                 ",
"                 ",
"                 ",
"                 ",
"                 "};
