/* XPM */
static char * tb_frame2_xpm[] = {
"17 17 2 1",
" 	c None",
".	c #C40000",
"                 ",
"                 ",
"                 ",
"                 ",
"  .              ",
" .               ",
"... . .. ..   .. ",
" . .   . ... .  .",
" . .  .. ... ....",
" . . . . ... .   ",
" . . ... ...  ...",
"                 ",
"                 ",
"                 ",
"                 ",
"                 ",
"                 "};
