/* XPM */
static char * tb_frameno_xpm[] = {
"17 17 13 1",
" 	c None",
".	c #3F3F3F",
"+	c #898989",
"@	c #757171",
"#	c #700000",
"$	c #9B0000",
"%	c #C1BA51",
"&	c #E2E2E2",
"*	c #D30000",
"=	c #595959",
"-	c #8FA8A6",
";	c #BC6969",
">	c #74918D",
"................ ",
".+@+@@+@+@+@+@+##",
"##@+@+@++@++@##$$",
"$$#%%%&%%%%##$$*$",
"*$$##%&&##$$***$$",
"$**$$#&#$***$$$##",
"#$$**$#$*$$$###. ",
".##$$*$**###---. ",
".;;##$**$#->>--. ",
".;;;#$*$*$>----. ",
".;;;$*$#*$#----. ",
".;;#*$#>#**$>--. ",
".;#**#>--$$*#--. ",
".;#*$=-->##*$--. ",
".#*$#=>->-#$*$>. ",
"#$*#;=-----#$*#. ",
"#*$#;=-->>->#*$. "};
