/* XPM */
static char *tb_h4[] = {
/* width height num_colors chars_per_pixel */
"    17    17        2            1",
/* colors */
"  c None",
"b c #000000",
/* pixels */
"                 ",
"                 ",
"                 ",
"                 ",
"                 ",
"  bbb bbb     b  ",
"   b   b     bb  ",
"   b   b    b b  ",
"   bbbbb   b  b  ",
"   b   b   bbbbb ",
"   b   b      b  ",
"  bbb bbb     b  ",
"                 ",
"                 ",
"                 ",
"                 ",
"                 "
};
