/* XPM */
static char *tb_h1[] = {
/* width height num_colors chars_per_pixel */
"    17    17      2            1",
/* colors */
"  c None",
"X c #000000",
/* pixels */
"XXXXX   XXXXX  XX",
"  XX     XX   XXX",
"  XX     XX  XXXX",
"  XX     XX    XX",
"  XX     XX    XX",
"  XX     XX    XX",
"  XX     XX    XX",
"  XXXXXXXXX    XX",
"  XX     XX    XX",
"  XX     XX    XX",
"  XX     XX    XX",
"  XX     XX    XX",
"  XX     XX    XX",
"  XX     XX    XX",
"  XX     XX    XX",
"XXXXX   XXXXX XXX",
"                 "
};
