/* XPM */
static char *tb_h3[] = {
/* width height num_colors chars_per_pixel */
"    17    17      2            1",
/* colors */
"  c None",
"X c #000000",
/* pixels */
"                 ",
"                 ",
"                 ",
" XXX  XXX  XXXX  ",
"  X    X  X   XX ",
"  X    X       X ",
"  X    X      X  ",
"  XXXXXX    XX   ",
"  X    X    XXX  ",
"  X    X       X ",
"  X    X       X ",
"  X    X  XX  XX ",
" XXX  XXX  XXXX  ",
"                 ",
"                 ",
"                 ",
"                 "
};
