/* XPM */
static char * tb_inputpassd_xpm[] = {
"17 17 6 1",
" 	c None",
".	c #CDCECD",
"+	c #4A484A",
"@	c #FFFFFF",
"#	c #000000",
"$	c #EEEEEE",
"                 ",
"                 ",
".................",
".++++++++++++++@.",
".##############@.",
".#@@@@@@@@@@@@@@.",
".#@@#@@@#@@@#@@@.",
".#@###@###@###@@.",
".#@###@###@###@@.",
".#@@#@@@#@@@#@@@.",
".#@@@@@@@@@@@@@@.",
".$$$$$$$$$$$$$$@.",
".@@@@@@@@@@@@@@@.",
".................",
"                 ",
"                 ",
"                 "};
