/* XPM */
static char * tb_inputreset_xpm[] = {
"17 17 61 1",
" 	c None",
".	c #FEFEFE",
"+	c #FFFFFF",
"@	c #F7F7F7",
"#	c #757375",
"$	c #D3D3D3",
"%	c #CFD0CF",
"&	c #C4C5C4",
"*	c #4A484A",
"=	c #D1D1D1",
"-	c #CDCDCD",
";	c #CDCECD",
">	c #CCCDCC",
",	c #C2C3C2",
"'	c #9C9D9C",
")	c #898A89",
"!	c #A6A7A6",
"~	c #A8A9A8",
"{	c #7D7E7D",
"]	c #A5A6A5",
"^	c #989998",
"/	c #909090",
"(	c #C6C7C6",
"_	c #9A9B9A",
":	c #A9AAA9",
"<	c #ACADAC",
"[	c #B3B4B3",
"}	c #5E5E5E",
"|	c #A0A1A0",
"1	c #8A8B8A",
"2	c #6B6C6B",
"3	c #525252",
"4	c #838383",
"5	c #6E6E6E",
"6	c #B6B7B6",
"7	c #4E4E4E",
"8	c #696969",
"9	c #636463",
"0	c #585858",
"a	c #6E6F6E",
"b	c #747474",
"c	c #484848",
"d	c #909190",
"e	c #BFC0BF",
"f	c #707170",
"g	c #646464",
"h	c #AEAFAE",
"i	c #7D7D7D",
"j	c #656665",
"k	c #717271",
"l	c #757575",
"m	c #969696",
"n	c #7F807F",
"o	c #7C7C7C",
"p	c #626262",
"q	c #FBFBFB",
"r	c #CBCBCB",
"s	c #C7C8C7",
"t	c #BDBDBD",
"u	c #787778",
"v	c #494749",
"                 ",
"                 ",
".+++.....++++++@#",
".$%%%%%%%%%%%%%&*",
"+=-;>>>>>;;;;;;,*",
".=>;')>>>;;;;!;,*",
"+=>~{]^(__;:<};,*",
".=>|1>>231456};,*",
".=>|1&40}!ab;};,*",
".=>efghjk<1lmk;,*",
"+=>opp^>>;;;;;;,*",
".=>;>>>>>;;;;;;,*",
"qrssssssssssssst*",
"uvv*vvvvv********",
"                 ",
"                 ",
"                 "};
