/* XPM */
static char * tb_inputbutton_xpm[] = {
"17 17 20 1",
" 	c None",
".	c #FEFEFE",
"+	c #FFFFFF",
"@	c #F7F7F7",
"#	c #757375",
"$	c #D3D3D3",
"%	c #CFD0CF",
"&	c #C4C5C4",
"*	c #4A484A",
"=	c #D1D1D1",
"-	c #CDCDCD",
";	c #CDCECD",
">	c #CCCDCC",
",	c #C2C3C2",
"'	c #FBFBFB",
")	c #CBCBCB",
"!	c #C7C8C7",
"~	c #BDBDBD",
"{	c #787778",
"]	c #494749",
"                 ",
"                 ",
".+++.....++++++@#",
".$%%%%%%%%%%%%%&*",
"+=-;>>>>>;;;;;;,*",
".=>>>>>>>>>>>>;,*",
"+=>>>>>>>>>>>>;,*",
".=>>>>>>>>>>>>;,*",
".=>>>>>>>>>>>>;,*",
".=>>>>>>>>>>>>;,*",
"+=>>>>>>>>>>>>;,*",
".=>;>>>>>;;;;;;,*",
"')!!!!!!!!!!!!!~*",
"{]]*]]]]]********",
"                 ",
"                 ",
"                 "};
