/* XPM */
static char * tb_inputimage_xpm[] = {
"17 17 66 1",
" 	c None",
".	c #FEFEFE",
"+	c #FFFFFF",
"@	c #F7F7F7",
"#	c #757375",
"$	c #D3D3D3",
"%	c #CFD0CF",
"&	c #C4C5C4",
"*	c #4A484A",
"=	c #D1D1D1",
"-	c #8E6868",
";	c #FF1010",
">	c #EB6454",
",	c #32D032",
"'	c #32BB32",
")	c #545DEB",
"!	c #4F4FDF",
"~	c #7D7E85",
"{	c #CDCECD",
"]	c #C2C3C2",
"^	c #361D1D",
"/	c #E11414",
"(	c #E80600",
"_	c #2A8000",
":	c #008900",
"<	c #0E17D2",
"[	c #0101B4",
"}	c #050534",
"|	c #CCCDCC",
"1	c #252525",
"2	c #9E5555",
"3	c #CA0E0E",
"4	c #94AD7A",
"5	c #5B64A6",
"6	c #0C0C9E",
"7	c #AD1B1B",
"8	c #E4E4E4",
"9	c #007200",
"0	c #697288",
"a	c #313180",
"b	c #9B5555",
"c	c #AA1B1B",
"d	c #9DB184",
"e	c #9C9E9F",
"f	c #838384",
"g	c #7A6666",
"h	c #915657",
"i	c #E4E4C0",
"j	c #A4A4A8",
"k	c #343434",
"l	c #777777",
"m	c #9B9B9D",
"n	c #AAABAA",
"o	c #383838",
"p	c #3B3B3C",
"q	c #575757",
"r	c #575749",
"s	c #3F3F40",
"t	c #323232",
"u	c #515151",
"v	c #FBFBFB",
"w	c #CBCBCB",
"x	c #C7C8C7",
"y	c #BDBDBD",
"z	c #787778",
"A	c #494749",
"                 ",
"                 ",
".+++.....++++++@#",
".$%%%%%%%%%%%%%&*",
"+=-;>,'!~{{{{{{]*",
".=^/(_:[}|||||{]*",
"+=1234:61|||||{]*",
".=12789a1|||||{]*",
".=1bc8df1|||||{]*",
".=1gh8if1|||||{]*",
"+=klm8if1|||||{]*",
".=nopqrtu{{{{{{]*",
"vwxxxxxxxxxxxxxy*",
"zAA*AAAAA********",
"                 ",
"                 ",
"                 "};
