/* XPM */
static char * tb_inputsubmit_xpm[] = {
"17 17 35 1",
" 	c None",
".	c #030303",
"+	c #1F1E1F",
"@	c #181818",
"#	c #010101",
"$	c #1D1C1D",
"%	c #EBE7EB",
"&	c #E3DFE3",
"*	c #8A878A",
"=	c #090909",
"-	c #E4E0E4",
";	c #C4C2C4",
">	c #C4C1C4",
",	c #C5C2C5",
"'	c #6E6B6E",
")	c #9A989A",
"!	c #6E6D6E",
"~	c #7A787A",
"{	c #727072",
"]	c #C5C1C5",
"^	c #737173",
"/	c #C0BDC0",
"(	c #6E6C6E",
"_	c #515051",
":	c #8B898B",
"<	c #E3E0E3",
"[	c #BDBBBD",
"}	c #716F71",
"|	c #A09DA0",
"1	c #979597",
"2	c #171617",
"3	c #8D8A8D",
"4	c #6F6D6F",
"5	c #595759",
"6	c #0A0A0A",
"                 ",
"                 ",
"                 ",
".++++++++++++++@#",
"$%&&&&&&&&&&&&&*=",
"$-;>>,,,,,,,,,>'=",
"$-;>;,)!~{{,,,>'=",
"$-]>>,^/(_:,,,>'=",
"$<>>>,^/(((,,,>'=",
"$-]>>,[}|11,,,>'=",
"$<;]>,,,,,,,,,>'=",
"2344444444444445=",
"#666666666666666#",
"                 ",
"                 ",
"                 ",
"                 "},
