/* XPM */
static char * tb_inputtext_xpm[] = {
"17 17 6 1",
" 	c None",
".	c #CDCECD",
"+	c #4A484A",
"@	c #FFFFFF",
"#	c #000000",
"$	c #EEEEEE",
"                 ",
"                 ",
".................",
".++++++++++++++@.",
".+############$@.",
".+#@@@@@@@@@@@$@.",
".+#@@@@@@@@@@@$@.",
".+#@@@@@@@@@@@$@.",
".+#@@@@@@@@@@@$@.",
".+#@@@@@@@@@@@$@.",
".+#@@@@@@@@@@@$@.",
".+$$$$$$$$$$$$$@.",
".@@@@@@@@@@@@@@@.",
".................",
"                 ",
"                 ",
"                 "};
