/* XPM */
static char *tb_italic[] = {
/* width height num_colors chars_per_pixel */
"    17    17      2            1",
/* colors */
"  c None",
"X c #000000",
/* pixels */
"                 ",
"            X    ",
"           XX    ",
"           XX    ",
"          XXX    ",
"         X XX    ",
"        X  XX    ",
"        X  XX    ",
"       X   XX    ",
"      X    XX    ",
"      XXXXXXX    ",
"     X     XX    ",
"    X      XX    ",
"   X       XX    ",
" XXXXX   XXXXXX  ",
"                 ",
"                 "
};
