/* XPM */
static char * tb_inputcheckbox_xpm[] = {
"17 17 4 1",
" 	c None",
".	c #CDCECD",
"+	c #FFFFFF",
"@	c #4A484A",
"                 ",
"                 ",
"   ...........   ",
"   .+++++++++@   ",
"   .++++++++@@   ",
"   .++......@@   ",
"   .++......@@   ",
"   .++......@@   ",
"   .++......@@   ",
"   .++......@@   ",
"   .++......@@   ",
"   .+@@@@@@@@@   ",
"   .@@@@@@@@@@   ",
"                 ",
"                 ",
"                 ",
"                 "};
