/* XPM */
static char *tb_listdl[] = {
/* width height num_colors chars_per_pixel */
"    17    17       2            1",
/* colors */
"# c #000000",
". c none",
/* pixels */
".................",
".................",
".................",
"#########........",
".................",
".....############",
".................",
".....############",
".................",
"#########........",
".................",
".....############",
".................",
".....############",
".................",
".................",
"................."
};
