/* XPM */
static char * tb_menu[] = {
"17 17 2 1",
" 	c None",
".	c #000000",
"                 ",
"                 ",
"                 ",
"                 ",
"                 ",
".   . ... ..  . .",
".. .. .   . . . .",
"..... .   . . . .",
". . . ... . . . .",
".   . .   . . . .",
".   . .   . . . .",
".   . ... . .  ..",
"                 ",
"                 ",
"                 ",
"                 ",
"                 "};
