/* XPM */
static char * tb_pre[] = {
"17 17 2 1",
" 	c None",
".	c #000000",
"                 ",
"                 ",
"                 ",
" ...  . ...  ..  ",
" . ..  .. . . .. ",
" . ..  .    .... ",
" . ..  .    .    ",
" ...  ...    ... ",
" .               ",
" .               ",
"                 ",
".    .     .    .",
".    .     .    .",
".................",
"                 ",
"                 ",
"                 "};
