/* XPM */
static char *tb_small[] = {
/* width height num_colors chars_per_pixel */
"    17    17      2            1",
/* colors */
"  c None",
"X c #000000",
/* pixels */
"                 ",
"                 ",
"                 ",
"                 ",
"      XXX X      ",
"     XX  XX      ",
"     X    X      ",
"     XX          ",
"      XXX        ",
"        XX       ",
"          X      ",
"     X    X      ",
"     XX  XX      ",
"     X XXX       ",
"                 ",
"                 ",
"                 "
};
