/* XPM */
static char *tb_subscript[] = {
/* width height num_colors chars_per_pixel */
"    17    17      3            1",
/* colors */
"  c None",
"X c #000000",
"y c #ffffff",
/* pixels */
"                 ",
"                 ",
"                 ",
" yyyyyyy   XXX X ",
" yyyyyyy  XX  XX ",
" yyyyyyy  X    X ",
"          XX     ",
"           XXX   ",
"             XX  ",
"               X ",
"          X    X ",
"          XX  XX ",
"          X XXX  ",
"                 ",
"                 ",
"                 ",
"                 "
};
