/* XPM */
static char *tb_strikeout[] = {
/* width height num_colors chars_per_pixel */
"    17    17      2            1",
/* colors */
"  c None",
"X c #000000",
/* pixels */
"                 ",
"                 ",
"       XXX X     ",
"      X   XX     ",
"     XX    X     ",
"     XX          ",
"     XXX         ",
"      XXXX       ",
" XXXXXXXXXXXXXXXX",
"         XXX     ",
"          XXX    ",
"           XX    ",
"     X     XX    ",
"     XX   XX     ",
"     X XXX       ",
"                 ",
"                 "
};
