/* XPM */
static char * tb_td2_xpm[] = {
"17 17 2 1",
" 	c None",
".	c #000000",
"                 ",
"                 ",
"...............  ",
".  ..  . ..   .. ",
".  ..  . ..    ..",
"   ..    ..    ..",
"   ..    ..    ..",
"   ..    ..    ..",
"   ..    ..    ..",
"   ..    ..    ..",
"   ..    ..    ..",
"   ..    ..    ..",
"   ..    ..   .. ",
" ...... .......  ",
"                 ",
"                 ",
"                 "};
