/* XPM */
static char * tb_tablewiz_xpm[] = {
"17 17 27 1",
" 	c None",
".	c #000000",
"+	c #C1BA51",
"@	c #E2E2E2",
"#	c #000000",
"$	c #000DDB",
"%	c #FF0000",
"&	c #00FF00",
"*	c #0000FF",
"=	c #000FC3",
"-	c #000DE3",
";	c #000ECB",
">	c #000CEB",
",	c #000ED3",
"'	c #000BF4",
")	c #000FBB",
"!	c #0010AB",
"~	c #FFFFFF",
"{	c #0011A3",
"]	c #00119B",
"^	c #0010B3",
"/	c #001293",
"(	c #001473",
"_	c #00128B",
":	c #00146B",
"<	c #001383",
"[	c #00137B",
"   .           . ",
"  ...............",
"   .+@++@++++++. ",
"   .+@@+@@@+@@+. ",
"   .++@+@+@++@+. ",
"  ...............",
"   .%%%.&&&.***. ",
"  -.%%%.&&&.***. ",
"  $............. ",
" ;)]%%%.&&&.***. ",
" ,^/(%%.&&&.***. ",
" ~!_:........... ",
" -~<:%%.&&&.***. ",
" >][:%%.&&&.***. ",
"^~/(::...........",
")>_~:: .   .   . ",
"=-<::: .   .   . "};
