/* XPM */
static char * tb_td_xpm[] = {
"17 17 8 1",
" 	c None",
".	c #000000",
"+	c #C1BA51",
"@	c #E2E2E2",
"#	c #FF0000",
"$	c #00FF00",
"%	c #0000FF",
"&	c #FFFFFF",
"  .           .  ",
"  .           .  ",
".................",
"  .++++@++++++.  ",
"  .++@+@+@++@+.  ",
".................",
"  .###.$$$.%%%.  ",
"  .###.$$$.%%%.  ",
"  ....&&&&&....  ",
"  .###&$$$&%%%.  ",
"  .###&$$$&%%%.  ",
"  ....&&&&&....  ",
"  .###.$$$.%%%.  ",
"  .###.$$$.%%%.  ",
".................",
"  .   .   .   .  ",
"  .   .   .   .  "};
