/* XPM */
static char * tb_tr2_xpm[] = {
"17 17 2 1",
" 	c None",
".	c #000000",
"                 ",
"                 ",
"...............  ",
".  ..  . ..   .. ",
".  ..  . ..    ..",
"   ..    ..    ..",
"   ..    ..    ..",
"   ..    ..   .. ",
"   ..    .....   ",
"   ..    ..  .   ",
"   ..    ..  ..  ",
"   ..    ..   .. ",
"   ..    ..    ..",
" ...... .....   .",
"                 ",
"                 ",
"                 "};
