/* XPM */
static char *tb_typewriter[] = {
/* width height num_colors chars_per_pixel */
"    17    17      2            1",
/* colors */
"  c None",
"X c #000000",
/* pixels */
"                 ",
"                 ",
"                 ",
"    XXXXXXXXX    ",
"    X   X   X    ",
"    X   X   X    ",
"    X   X   X    ",
"        X        ",
"        X        ",
"        X        ",
"        X        ",
"        X        ",
"        X        ",
"        X        ",
"      XXXXX      ",
"                 ",
"                 "
};
