/* XPM */
static char *tb_underline[] = {
/* width height num_colors chars_per_pixel */
"    17    17      2            1",
/* colors */
"  c None",
"X c #000000",
/* pixels */
"        X        ",
"       XXX       ",
"       XXX       ",
"      XXXXX      ",
"      X XXX      ",
"     XX  XXX     ",
"     X   XXX     ",
"    XX    XXX    ",
"    X     XXX    ",
"   XXXXXXXXXXX   ",
"   X       XXX   ",
"  XX        XXX  ",
" XXX        XXXX ",
"XXXXX     XXXXXXX",
"                 ",
"XXXXXXXXXXXXXXXXX",
"                 "
};
