/* XPM */
static char * color_select_xpm[] = {
"17 17 133 2",
"  	c None",
". 	c #794409",
"+ 	c #DA6518",
"@ 	c #F95925",
"# 	c #FD3E2C",
"$ 	c #FE2D40",
"% 	c #FB265C",
"& 	c #DD1968",
"* 	c #800949",
"= 	c #7D5E0A",
"- 	c #FDA924",
"; 	c #FD9439",
"> 	c #FE7D48",
", 	c #FD6250",
"' 	c #FE5065",
") 	c #FE4780",
"! 	c #FE3897",
"~ 	c #FE23AC",
"{ 	c #9A0B73",
"] 	c #696208",
"^ 	c #FBDA24",
"/ 	c #FECA41",
"( 	c #FEB75A",
"_ 	c #FEA16C",
": 	c #FD8776",
"< 	c #FE758B",
"[ 	c #FE6BA4",
"} 	c #FE59B9",
"| 	c #FE3FCD",
"1 	c #FE23E0",
"2 	c #770871",
"3 	c #C2CB18",
"4 	c #FAF839",
"5 	c #FEEA5A",
"6 	c #FED878",
"7 	c #FEC48E",
"8 	c #FDAD9B",
"9 	c #FE9AB0",
"0 	c #FE8BC7",
"a 	c #FE75DB",
"b 	c #FE58ED",
"c 	c #FA37FA",
"d 	c #CE17DB",
"e 	c #C1EA25",
"f 	c #E3FE49",
"g 	c #F3FC6D",
"h 	c #FCF38F",
"i 	c #FDE4AB",
"j 	c #FDCFBE",
"k 	c #FEBCD3",
"l 	c #FEA8E8",
"m 	c #FC8BF6",
"n 	c #F26AFD",
"o 	c #E146FE",
"p 	c #CC23FB",
"q 	c #ADFA2D",
"r 	c #C3FE52",
"s 	c #D6FE78",
"t 	c #E9FE9F",
"u 	c #F7FBC1",
"v 	c #F0E3D2",
"w 	c #F3D1E9",
"x 	c #F6BDFC",
"y 	c #E79AFE",
"z 	c #D474FE",
"A 	c #C14FFF",
"B 	c #AE2AFE",
"C 	c #87FA2E",
"D 	c #9BFE54",
"E 	c #AFFE7A",
"F 	c #C2FEA1",
"G 	c #D5FEC6",
"H 	c #D6E9D9",
"I 	c #D6D6EC",
"J 	c #D3C2FE",
"K 	c #C19DFE",
"L 	c #AD76FE",
"M 	c #9A50FF",
"N 	c #872BFF",
"O 	c #5CEB27",
"P 	c #74FE4C",
"Q 	c #87FE72",
"R 	c #9CFE9A",
"S 	c #B5FEC6",
"T 	c #C9FDEE",
"U 	c #C7E8FE",
"V 	c #B2C0FE",
"W 	c #9A95FE",
"X 	c #856EFE",
"Y 	c #7249FF",
"Z 	c #5F26FC",
"` 	c #2FCF1B",
" .	c #4AFE41",
"..	c #63FE6D",
"+.	c #80FD9E",
"@.	c #98FDC9",
"#.	c #A6FDEF",
"$.	c #A5EAFE",
"%.	c #96C3FE",
"&.	c #7D98FE",
"*.	c #6069FE",
"=.	c #473EFF",
"-.	c #311BDF",
";.	c #0C730F",
">.	c #2BFE43",
",.	c #4AFE74",
"'.	c #63FEA2",
").	c #76FECA",
"!.	c #81FDEF",
"~.	c #81EAFE",
"{.	c #75C5FE",
"].	c #619DFE",
"^.	c #4770FE",
"/.	c #283FFF",
"(.	c #0C0F86",
"_.	c #12C13D",
":.	c #2DFE7A",
"<.	c #43FDA6",
"[.	c #53FECB",
"}.	c #5BFDEF",
"|.	c #5BEAFE",
"1.	c #52C6FE",
"2.	c #42A1FE",
"3.	c #2B75FE",
"4.	c #103DCF",
"5.	c #10B159",
"6.	c #23F2A0",
"7.	c #30FDCB",
"8.	c #37FDEF",
"9.	c #37EAFE",
"0.	c #2FC7FE",
"a.	c #229DF5",
"b.	c #0F5ABB",
"                                  ",
"                                  ",
"                                  ",
"          . + @ # $ % & *         ",
"        = - ; > , ' ) ! ~ {       ",
"      ] ^ / ( _ : < [ } | 1 2     ",
"      3 4 5 6 7 8 9 0 a b c d     ",
"      e f g h i j k l m n o p     ",
"      q r s t u v w x y z A B     ",
"      C D E F G H I J K L M N     ",
"      O P Q R S T U V W X Y Z     ",
"      `  ...+.@.#.$.%.&.*.=.-.    ",
"      ;.>.,.'.).!.~.{.].^./.(.    ",
"        _.:.<.[.}.|.1.2.3.4.      ",
"          5.6.7.8.9.0.a.b.        ",
"                                  ",
"                                  "};
