/* XPM */
static char * tb_winnew_xpm[] = {
"17 17 5 1",
"       s mask  c None",
".      s dark  c grey50",
"X      s white c white",
"x      c lightsteelblue",
"o      s style c black",
"         .  .X.  ",
"         X. .X. X",
"          X.oXoX.",
" ooooooooooXXXXo.",
" oxxxxxxxxXXXXXXX",
" oxxXxxxxxoXoXXo.",
" oxXXxxxx.xXoXoX ",
" oxxxxxx.xxXoX..X",
" oxxxxxxxxxXoX. .",
" oxxxxxxxxxXo.   ",
" oxxxxxxxxxXo.   ",
" oxxxxxxxxxXo.   ",
" oxxxxxxxxxXo.   ",
" oxxxxxxxxxXo.   ",
" oXXXXXXXXXXo.   ",
" oooooooooooo.   ",
"    ..........   "};
