  0
SECTION
  2
HEADER
  9
$LIMMIN
 10
-90.000000
 20
-82.666667
  9
$LIMMAX
 10
159.688889
 20
120.000000
  9
$EXTMIN
 10
-90.000000
 20
-82.666667
  9
$EXTMAX
 10
159.688889
 20
120.000000
  9
$ANGBASE
 50
0.000000
  9
$ANGDIR
 70
0
  9
$INSUNITS
 70
4
  9
$DIMALT
 70
4
  9
$DIMLUNIT
 70
2
  9
$DIMASZ
 40
3.000000
  9
$DIMTXT
 40
5.000000
  9
$DIMRND
 40
0.010000
  9
$DIMEXE
 40
2.000000
  9
$DIMEXO
 40
2.000000
  9
$DIMAUNIT
 70
0
  9
$DIMADEC
 70
2
  9
$GRIDUNIT
 10
0.001000
 20
0.001000
  9
$PLIMMIN
 10
-45.000000
 20
-145.000000
  9
$PLIMMAX
 10
165.000000
 20
152.000000
  9
$PSVPSCALE
 40
1.000000
  0
ENDSEC
  0
SECTION
  2
TABLES
  0
TABLE
  2
LTYPE
 70
     1
  0
LTYPE
  2
CONTINUOUS
 70
    64
  3
Ausgez
 72
    65
 73
  0
 40
0.000000
  0
ENDTAB
  0
TABLE
  2
LAYER
 70
     1
  0
LAYER
  2
default
 70
    64
 39
0
 62
0
  6
CONTINUOUS
  0
LAYER
  2
road
 70
    64
 39
0
 62
0
  6
CONTINUOUS
  0
LAYER
  2
path
 70
    64
 39
0
 62
0
  6
CONTINUOUS
  0
ENDTAB
  0
ENDSEC
  0
SECTION
  2
BLOCKS
  0
ENDSEC
  0
SECTION
  2
ENTITIES
  0
LINE
  8
default
  6
CONTINUOUS
 10
-30.000000
 20
10.000000
 11
-5.000000
 21
90.000000
 39
0
 62
0
  0
LINE
  8
default
  6
CONTINUOUS
 10
-5.000000
 20
90.000000
 11
30.000000
 21
90.000000
 39
0
 62
0
  0
LINE
  8
default
  6
CONTINUOUS
 10
30.000000
 20
90.000000
 11
5.000000
 21
10.000000
 39
0
 62
0
  0
LINE
  8
default
  6
CONTINUOUS
 10
5.000000
 20
10.000000
 11
-30.000000
 21
10.000000
 39
0
 62
0
  0
LINE
  8
default
  6
CONTINUOUS
 10
-5.000000
 20
90.000000
 11
-5.000000
 21
120.000000
 39
0
 62
0
  0
LINE
  8
default
  6
CONTINUOUS
 10
-5.000000
 20
120.000000
 11
30.000000
 21
120.000000
 39
0
 62
0
  0
LINE
  8
default
  6
CONTINUOUS
 10
30.000000
 20
120.000000
 11
30.000000
 21
90.000000
 39
0
 62
0
  0
LINE
  8
default
  6
CONTINUOUS
 10
-5.000000
 20
120.000000
 11
-30.000000
 21
40.000000
 39
0
 62
0
  0
LINE
  8
default
  6
CONTINUOUS
 10
-30.000000
 20
40.000000
 11
-30.000000
 21
10.000000
 39
0
 62
0
  0
ARC
  8
road
  6
CONTINUOUS
 10
7.500000
 20
37.500000
 40
17.677670
 50
351.869898
 51
98.130102
 39
0
 62
0
  0
LINE
  8
road
  6
CONTINUOUS
 10
25.000000
 20
35.000000
 11
25.000000
 21
-50.000000
 39
0
 62
0
  0
ARC
  8
road
  6
CONTINUOUS
 10
7.500000
 20
37.500000
 40
32.596012
 50
4.398705
 51
94.398705
 39
0
 62
0
  0
LINE
  8
road
  6
CONTINUOUS
 10
40.000000
 20
40.000000
 11
40.000000
 21
20.000000
 39
0
 62
0
  0
ARC
  8
road
  6
CONTINUOUS
 10
57.500000
 20
17.500000
 40
17.677670
 50
171.869898
 51
261.869898
 39
0
 62
0
  0
LINE
  8
road
  6
CONTINUOUS
 10
5.000000
 20
70.000000
 11
-90.000000
 21
70.000000
 39
0
 62
0
  0
LINE
  8
road
  6
CONTINUOUS
 10
5.000000
 20
55.000000
 11
-90.000000
 21
55.000000
 39
0
 62
0
  0
ARC
  8
road
  6
CONTINUOUS
 10
32.500000
 20
-47.500000
 40
7.905694
 50
198.434949
 51
288.434949
 39
0
 62
0
  0
LINE
  8
road
  6
CONTINUOUS
 10
35.000000
 20
-55.000000
 11
125.000000
 21
-55.000000
 39
0
 62
0
  0
ARC
  8
road
  6
CONTINUOUS
 10
122.500000
 20
-47.500000
 40
7.905694
 50
288.434949
 51
18.434949
 39
0
 62
0
  0
LINE
  8
road
  6
CONTINUOUS
 10
55.000000
 20
0.000000
 11
105.000000
 21
0.000000
 39
0
 62
0
  0
HATCH
  8
default
  6
CONTINUOUS
  1
 
  2
arcs
 70
0
 91
1
 72
1
 10
-5.000000
 20
90.000000
 11
30.000000
 21
90.000000
 72
1
 10
-5.000000
 20
90.000000
 11
-5.000000
 21
120.000000
 72
1
 10
-5.000000
 20
120.000000
 11
30.000000
 21
120.000000
 72
1
 10
30.000000
 20
120.000000
 11
30.000000
 21
90.000000
 75
0
 76
1
 52
0.000000
 91
1
 41
1.000000
 77
0
 39
0
 62
0
  0
HATCH
  8
default
  6
CONTINUOUS
  1
 
  2
arcs
 70
0
 91
1
 72
1
 10
-30.000000
 20
10.000000
 11
-5.000000
 21
90.000000
 72
1
 10
-5.000000
 20
90.000000
 11
30.000000
 21
90.000000
 72
1
 10
30.000000
 20
90.000000
 11
5.000000
 21
10.000000
 72
1
 10
5.000000
 20
10.000000
 11
-30.000000
 21
10.000000
 75
0
 76
1
 52
0.000000
 91
1
 41
1.000000
 77
0
 39
0
 62
0
  0
LINE
  8
default
  6
CONTINUOUS
 10
-30.000000
 20
10.000000
 11
-30.000000
 21
-20.000000
 39
0
 62
0
  0
LINE
  8
default
  6
CONTINUOUS
 10
-30.000000
 20
-20.000000
 11
-25.000000
 21
-15.000000
 39
0
 62
0
  0
LINE
  8
default
  6
CONTINUOUS
 10
-25.000000
 20
-15.000000
 11
-25.000000
 21
15.000000
 39
0
 62
0
  0
LINE
  8
default
  6
CONTINUOUS
 10
-25.000000
 20
15.000000
 11
-30.000000
 21
10.000000
 39
0
 62
0
  0
LINE
  8
default
  6
CONTINUOUS
 10
-30.000000
 20
-35.000000
 11
-25.000000
 21
-30.000000
 39
0
 62
0
  0
LINE
  8
default
  6
CONTINUOUS
 10
-25.000000
 20
-30.000000
 11
-25.000000
 21
-60.000000
 39
0
 62
0
  0
LINE
  8
default
  6
CONTINUOUS
 10
-25.000000
 20
-60.000000
 11
-30.000000
 21
-65.000000
 39
0
 62
0
  0
LINE
  8
default
  6
CONTINUOUS
 10
-30.000000
 20
-65.000000
 11
-30.000000
 21
-35.000000
 39
0
 62
0
  0
HATCH
  8
default
  6
CONTINUOUS
  1
 
  2
plastic
 70
0
 91
1
 72
1
 10
-30.000000
 20
10.000000
 11
-30.000000
 21
-20.000000
 72
1
 10
-30.000000
 20
-20.000000
 11
-25.000000
 21
-15.000000
 72
1
 10
-25.000000
 20
-15.000000
 11
-25.000000
 21
15.000000
 72
1
 10
-25.000000
 20
15.000000
 11
-30.000000
 21
10.000000
 75
0
 76
1
 52
0.000000
 91
1
 41
1.000000
 77
0
 39
0
 62
0
  0
HATCH
  8
default
  6
CONTINUOUS
  1
 
  2
plastic
 70
0
 91
1
 72
1
 10
-30.000000
 20
-35.000000
 11
-25.000000
 21
-30.000000
 72
1
 10
-25.000000
 20
-30.000000
 11
-25.000000
 21
-60.000000
 72
1
 10
-25.000000
 20
-60.000000
 11
-30.000000
 21
-65.000000
 72
1
 10
-30.000000
 20
-65.000000
 11
-30.000000
 21
-35.000000
 75
0
 76
1
 52
0.000000
 91
1
 41
1.000000
 77
0
 39
0
 62
0
  0
HATCH
  8
road
  6
CONTINUOUS
  1
 
  2
concrete
 70
0
 91
1
 72
2
 10
7.500000
 20
37.500000
 40
17.677670
 50
98.130102
 51
351.869898
 73
1
 72
1
 10
25.000000
 20
35.000000
 11
25.000000
 21
-50.000000
 72
2
 10
7.500000
 20
37.500000
 40
32.596012
 50
94.398705
 51
4.398705
 73
1
 72
1
 10
40.000000
 20
40.000000
 11
40.000000
 21
20.000000
 72
2
 10
57.500000
 20
17.500000
 40
17.677670
 50
171.869898
 51
261.869898
 73
0
 72
1
 10
5.000000
 20
70.000000
 11
-90.000000
 21
70.000000
 72
1
 10
5.000000
 20
55.000000
 11
-90.000000
 21
55.000000
 72
2
 10
32.500000
 20
-47.500000
 40
7.905694
 50
198.434949
 51
288.434949
 73
0
 72
1
 10
35.000000
 20
-55.000000
 11
125.000000
 21
-55.000000
 72
2
 10
122.500000
 20
-47.500000
 40
7.905694
 50
288.434949
 51
18.434949
 73
0
 72
1
 10
55.000000
 20
0.000000
 11
105.000000
 21
0.000000
 72
1
 10
-30.000000
 20
-35.000000
 11
-25.000000
 21
-30.000000
 72
1
 10
-25.000000
 20
-30.000000
 11
-25.000000
 21
-60.000000
 72
1
 10
-25.000000
 20
-60.000000
 11
-30.000000
 21
-65.000000
 72
1
 10
-30.000000
 20
-65.000000
 11
-30.000000
 21
-35.000000
 75
0
 76
1
 52
0.000000
 91
1
 41
1.000000
 77
0
 39
0
 62
0
  0
HATCH
  8
default
  6
CONTINUOUS
  1
 
  2
arcs
 70
0
 91
1
 72
1
 10
-30.000000
 20
10.000000
 11
-5.000000
 21
90.000000
 72
1
 10
-5.000000
 20
90.000000
 11
30.000000
 21
90.000000
 72
1
 10
30.000000
 20
90.000000
 11
5.000000
 21
10.000000
 72
1
 10
5.000000
 20
10.000000
 11
-30.000000
 21
10.000000
 72
1
 10
-5.000000
 20
90.000000
 11
-5.000000
 21
120.000000
 72
1
 10
-5.000000
 20
120.000000
 11
30.000000
 21
120.000000
 72
1
 10
30.000000
 20
120.000000
 11
30.000000
 21
90.000000
 72
1
 10
-5.000000
 20
120.000000
 11
-30.000000
 21
40.000000
 72
1
 10
-30.000000
 20
40.000000
 11
-30.000000
 21
10.000000
 75
0
 76
1
 52
0.000000
 91
1
 41
1.000000
 77
0
 39
0
 62
0
  0
HATCH
  8
default
  6
CONTINUOUS
  1
 
  2
135
 70
0
 91
1
 72
1
 10
-30.000000
 20
10.000000
 11
-5.000000
 21
90.000000
 72
1
 10
-5.000000
 20
90.000000
 11
30.000000
 21
90.000000
 72
1
 10
30.000000
 20
90.000000
 11
5.000000
 21
10.000000
 72
1
 10
5.000000
 20
10.000000
 11
-30.000000
 21
10.000000
 75
0
 76
1
 52
0.000000
 91
1
 41
1.000000
 77
0
 39
0
 62
0
  0
HATCH
  8
default
  6
CONTINUOUS
  1
 
  2
0
 70
0
 91
1
 72
1
 10
-5.000000
 20
90.000000
 11
30.000000
 21
90.000000
 72
1
 10
-5.000000
 20
90.000000
 11
-5.000000
 21
120.000000
 72
1
 10
-5.000000
 20
120.000000
 11
30.000000
 21
120.000000
 72
1
 10
30.000000
 20
120.000000
 11
30.000000
 21
90.000000
 75
0
 76
1
 52
0.000000
 91
1
 41
0.500000
 77
0
 39
0
 62
0
  0
HATCH
  8
default
  6
CONTINUOUS
  1
 
  2
90
 70
0
 91
1
 72
1
 10
-30.000000
 20
10.000000
 11
-5.000000
 21
90.000000
 72
1
 10
-5.000000
 20
90.000000
 11
-5.000000
 21
120.000000
 72
1
 10
-5.000000
 20
120.000000
 11
-30.000000
 21
40.000000
 72
1
 10
-30.000000
 20
40.000000
 11
-30.000000
 21
10.000000
 75
0
 76
1
 52
0.000000
 91
1
 41
0.500000
 77
0
 39
0
 62
0
  0
ARC
  8
path
  6
CONTINUOUS
 10
-5.000000
 20
5.000000
 40
25.000000
 50
0.000000
 51
53.130102
 39
0
 62
0
  0
LINE
  8
path
  6
CONTINUOUS
 10
20.000000
 20
5.000000
 11
20.000000
 21
-55.000000
 39
0
 62
0
  0
ARC
  8
path
  6
CONTINUOUS
 10
37.500000
 20
-52.500000
 40
17.677670
 50
188.130102
 51
261.869898
 39
0
 62
0
  0
LINE
  8
path
  6
CONTINUOUS
 10
35.000000
 20
-70.000000
 11
125.000000
 21
-70.000000
 39
0
 62
0
  0
LINE
  8
path
  6
CONTINUOUS
 10
-40.000000
 20
15.000000
 11
-40.000000
 21
-15.000000
 39
0
 62
0
  0
ARC
  8
path
  6
CONTINUOUS
 10
-27.500000
 20
-15.000000
 40
12.500000
 50
180.000000
 51
306.869898
 39
0
 62
0
  0
ARC
  8
path
  6
CONTINUOUS
 10
-7.500000
 20
-32.500000
 40
14.577380
 50
59.036243
 51
149.036243
 39
0
 62
0
  0
LINE
  8
path
  6
CONTINUOUS
 10
0.000000
 20
-20.000000
 11
20.000000
 21
-45.000000
 39
0
 62
0
  0
ARC
  8
path
  6
CONTINUOUS
 10
-32.500000
 20
17.500000
 40
7.905694
 50
108.434949
 51
198.434949
 39
0
 62
0
  0
TEXT
  8
path
  6
CONTINUOUS
 10
-70.000000
 20
75.000000
 40
10.000000
 50
0.000000
 72
0
  7
Normal#2.000000#6.000000
  1
Fire Lane
 39
0
 62
0
  0
TEXT
  8
path
  6
CONTINUOUS
 10
20.000000
 20
30.000000
 40
10.000000
 50
0.000000
 72
0
  7
Normal#2.000000#6.000000
  1
Fire Lane
 39
0
 62
0
  0
TEXT
  8
path
  6
CONTINUOUS
 10
70.000000
 20
-25.000000
 40
10.000000
 50
0.000000
 72
1
  7
Normal#2.000000#6.000000
  1
Parking
 39
0
 62
0
  0
TEXT
  8
path
  6
CONTINUOUS
 10
70.000000
 20
-39.000000
 40
10.000000
 50
0.000000
 72
1
  7
Normal#2.000000#6.000000
  1
Lot
 39
0
 62
0
  0
TEXT
  8
path
  6
CONTINUOUS
 10
120.000000
 20
-80.000000
 40
8.000000
 50
0.000000
 72
1
  7
Normal#0.800000#4.800000
  1
To Library Courtyard
 39
0
 62
0
  0
TEXT
  8
path
  6
CONTINUOUS
 10
-40.000000
 20
30.000000
 40
4.000000
 50
0.000000
 72
1
  7
Normal#0.400000#2.400000
  1
1st Floor
 39
0
 62
0
  0
TEXT
  8
path
  6
CONTINUOUS
 10
-40.000000
 20
24.400000
 40
4.000000
 50
0.000000
 72
1
  7
Normal#0.400000#2.400000
  1
Exit
 39
0
 62
0
  0
TEXT
  8
path
  6
CONTINUOUS
 10
15.000000
 20
15.000000
 40
4.000000
 50
0.000000
 72
1
  7
Normal#0.400000#2.400000
  1
Ground
 39
0
 62
0
  0
TEXT
  8
path
  6
CONTINUOUS
 10
15.000000
 20
9.400000
 40
4.000000
 50
0.000000
 72
1
  7
Normal#0.400000#2.400000
  1
Floor Exit
 39
0
 62
0
  0
LINE
  8
path
  6
CONTINUOUS
 10
-45.000000
 20
0.000000
 11
-40.000000
 21
-5.000000
 39
0
 62
0
  0
LINE
  8
path
  6
CONTINUOUS
 10
-40.000000
 20
-5.000000
 11
-35.000000
 21
0.000000
 39
0
 62
0
  0
LINE
  8
path
  6
CONTINUOUS
 10
5.000000
 20
-25.000000
 11
5.000000
 21
-20.000000
 39
0
 62
0
  0
LINE
  8
path
  6
CONTINUOUS
 10
5.000000
 20
-25.000000
 11
0.000000
 21
-25.000000
 39
0
 62
0
  0
LINE
  8
path
  6
CONTINUOUS
 10
20.000000
 20
-15.000000
 11
15.000000
 21
-10.000000
 39
0
 62
0
  0
LINE
  8
path
  6
CONTINUOUS
 10
20.000000
 20
-15.000000
 11
25.000000
 21
-10.000000
 39
0
 62
0
  0
LINE
  8
path
  6
CONTINUOUS
 10
55.000000
 20
-65.000000
 11
60.000000
 21
-70.000000
 39
0
 62
0
  0
LINE
  8
path
  6
CONTINUOUS
 10
60.000000
 20
-70.000000
 11
55.000000
 21
-75.000000
 39
0
 62
0
  0
ENDSEC
  0
EOF
